<svg xmlns="http://www.w3.org/2000/svg" viewBox="0 0 700 657" width="700" height="657" preserveAspectRatio="xMidYMid meet" style="width: 100%; height: 100%; transform: translate3d(0px, 0px, 0px);"><defs><clipPath id="__lottie_element_26"><rect width="700" height="657" x="0" y="0"></rect></clipPath><clipPath id="__lottie_element_28"><path d="M0,0 L213,0 L213,200 L0,200z"></path></clipPath></defs><g clip-path="url(#__lottie_element_26)"><g clip-path="url(#__lottie_element_28)" style="display: block;" transform="matrix(3.8575100898742676,0,0,3.8575100898742676,-80.8248291015625,-61.251007080078125)" opacity="1"><g style="display: block;" transform="matrix(0.9968045353889465,-0.07987938821315765,0.07987938821315765,0.9968045353889465,63.87613296508789,124.57066345214844)" opacity="1"><g opacity="1" transform="matrix(1,0,0,1,13.753000259399414,16.788999557495117)"><path fill="rgb(255,255,255)" fill-opacity="1" d=" M8.720999717712402,4.89300012588501 C6.573999881744385,8.718000411987305 3.618000030517578,11.560999870300293 0.6200000047683716,13.09000015258789 C-2.385999917984009,14.621999740600586 -5.317999839782715,14.789999961853027 -7.585000038146973,13.517999649047852 C-9.85200023651123,12.246000289916992 -11.237000465393066,9.656000137329102 -11.494999885559082,6.291999816894531 C-11.753000259399414,2.937000036239624 -10.866999626159668,-1.069000005722046 -8.720999717712402,-4.894000053405762 C-6.573999881744385,-8.720000267028809 -3.618000030517578,-11.560999870300293 -0.6190000176429749,-13.09000015258789 C2.385999917984009,-14.621999740600586 5.317999839782715,-14.789999961853027 7.585000038146973,-13.517999649047852 C9.85200023651123,-12.246000289916992 11.237000465393066,-9.656000137329102 11.496000289916992,-6.291999816894531 C11.753000259399414,-2.936000108718872 10.866999626159668,1.0670000314712524 8.720999717712402,4.89300012588501z"></path><path stroke-linecap="butt" stroke-linejoin="miter" fill-opacity="0" stroke-miterlimit="4" stroke="rgb(0,132,125)" stroke-opacity="1" stroke-width="2" d=" M8.720999717712402,4.89300012588501 C6.573999881744385,8.718000411987305 3.618000030517578,11.560999870300293 0.6200000047683716,13.09000015258789 C-2.385999917984009,14.621999740600586 -5.317999839782715,14.789999961853027 -7.585000038146973,13.517999649047852 C-9.85200023651123,12.246000289916992 -11.237000465393066,9.656000137329102 -11.494999885559082,6.291999816894531 C-11.753000259399414,2.937000036239624 -10.866999626159668,-1.069000005722046 -8.720999717712402,-4.894000053405762 C-6.573999881744385,-8.720000267028809 -3.618000030517578,-11.560999870300293 -0.6190000176429749,-13.09000015258789 C2.385999917984009,-14.621999740600586 5.317999839782715,-14.789999961853027 7.585000038146973,-13.517999649047852 C9.85200023651123,-12.246000289916992 11.237000465393066,-9.656000137329102 11.496000289916992,-6.291999816894531 C11.753000259399414,-2.936000108718872 10.866999626159668,1.0670000314712524 8.720999717712402,4.89300012588501z"></path></g></g><g style="display: block;" transform="matrix(1,0,0,1,81.64900207519531,103.10901641845703)" opacity="1"><g opacity="1" transform="matrix(1,0,0,1,31,38)"><path fill="rgb(255,255,255)" fill-opacity="1" d=" M29,-7 C29,-7 29,7 29,7 C29,23.016000747680664 16.016000747680664,36 0,36 C-16.016000747680664,36 -29,23.016000747680664 -29,7 C-29,7 -29,-7 -29,-7 C-29,-23.016000747680664 -16.016000747680664,-36 0,-36 C16.016000747680664,-36 29,-23.016000747680664 29,-7z"></path><path stroke-linecap="butt" stroke-linejoin="miter" fill-opacity="0" stroke-miterlimit="4" stroke="rgb(0,132,125)" stroke-opacity="1" stroke-width="2" d=" M29,-7 C29,-7 29,7 29,7 C29,23.016000747680664 16.016000747680664,36 0,36 C-16.016000747680664,36 -29,23.016000747680664 -29,7 C-29,7 -29,-7 -29,-7 C-29,-23.016000747680664 -16.016000747680664,-36 0,-36 C16.016000747680664,-36 29,-23.016000747680664 29,-7z"></path></g><g opacity="1" transform="matrix(1,0,0,1,31,52.237998962402344)"><path stroke-linecap="butt" stroke-linejoin="miter" fill-opacity="0" stroke-miterlimit="4" stroke="rgb(0,132,125)" stroke-opacity="1" stroke-width="2" d=" M-29,-3.990000009536743 C-29,-3.990000009536743 -29,-3.990000009536743 -29,-3.990000009536743 C-10.489999771118164,3.989000082015991 10.489999771118164,3.989000082015991 29,-3.990000009536743"></path></g><g opacity="1" transform="matrix(1,0,0,1,31,28.989999771118164)"><path stroke-linecap="butt" stroke-linejoin="miter" fill-opacity="0" stroke-miterlimit="4" stroke="rgb(0,132,125)" stroke-opacity="1" stroke-width="2" d=" M-29,-3.990000009536743 C-29,-3.990000009536743 -29,-3.990000009536743 -29,-3.990000009536743 C-10.489999771118164,3.989000082015991 10.489999771118164,3.989000082015991 29,-3.990000009536743"></path></g><g opacity="1" transform="matrix(1,0,0,1,31,7.5)"><path fill="rgb(0,132,125)" fill-opacity="1" d=" M0,-5.5 C4.604000091552734,-5.5 8.727999687194824,-4.784999847412109 11.663999557495117,-3.6619999408721924 C13.135000228881836,-3.0999999046325684 14.256999969482422,-2.4539999961853027 14.993000030517578,-1.7879999876022339 C15.729999542236328,-1.121999979019165 16,-0.515999972820282 16,0 C16,0.5170000195503235 15.729999542236328,1.121999979019165 14.993000030517578,1.7879999876022339 C14.256999969482422,2.4539999961853027 13.135000228881836,3.0999999046325684 11.663999557495117,3.6619999408721924 C8.727999687194824,4.784999847412109 4.604000091552734,5.5 0,5.5 C-4.604000091552734,5.5 -8.727999687194824,4.784999847412109 -11.663999557495117,3.6619999408721924 C-13.135000228881836,3.0999999046325684 -14.256999969482422,2.4539999961853027 -14.993000030517578,1.7879999876022339 C-15.729999542236328,1.121999979019165 -16,0.5170000195503235 -16,0 C-16,-0.515999972820282 -15.729999542236328,-1.121999979019165 -14.993000030517578,-1.7879999876022339 C-14.256999969482422,-2.4539999961853027 -13.135000228881836,-3.0999999046325684 -11.663999557495117,-3.6619999408721924 C-8.727999687194824,-4.784999847412109 -4.604000091552734,-5.5 0,-5.5z"></path><path stroke-linecap="butt" stroke-linejoin="miter" fill-opacity="0" stroke-miterlimit="4" stroke="rgb(0,132,125)" stroke-opacity="1" stroke-width="2" d=" M0,-5.5 C4.604000091552734,-5.5 8.727999687194824,-4.784999847412109 11.663999557495117,-3.6619999408721924 C13.135000228881836,-3.0999999046325684 14.256999969482422,-2.4539999961853027 14.993000030517578,-1.7879999876022339 C15.729999542236328,-1.121999979019165 16,-0.515999972820282 16,0 C16,0.5170000195503235 15.729999542236328,1.121999979019165 14.993000030517578,1.7879999876022339 C14.256999969482422,2.4539999961853027 13.135000228881836,3.0999999046325684 11.663999557495117,3.6619999408721924 C8.727999687194824,4.784999847412109 4.604000091552734,5.5 0,5.5 C-4.604000091552734,5.5 -8.727999687194824,4.784999847412109 -11.663999557495117,3.6619999408721924 C-13.135000228881836,3.0999999046325684 -14.256999969482422,2.4539999961853027 -14.993000030517578,1.7879999876022339 C-15.729999542236328,1.121999979019165 -16,0.5170000195503235 -16,0 C-16,-0.515999972820282 -15.729999542236328,-1.121999979019165 -14.993000030517578,-1.7879999876022339 C-14.256999969482422,-2.4539999961853027 -13.135000228881836,-3.0999999046325684 -11.663999557495117,-3.6619999408721924 C-8.727999687194824,-4.784999847412109 -4.604000091552734,-5.5 0,-5.5z"></path></g><g opacity="1" transform="matrix(1,0,0,1,31,6)"><path fill="rgb(255,255,255)" fill-opacity="1" d=" M-10,0 C-10,-1.656999945640564 -5.5229997634887695,-3 0,-3 C5.5229997634887695,-3 10,-1.656999945640564 10,0 C10,1.656999945640564 5.5229997634887695,3 0,3 C-5.5229997634887695,3 -10,1.656999945640564 -10,0z"></path></g></g><g style="display: block;" transform="matrix(0.9982021450996399,-0.0599374920129776,0.0599374920129776,0.9982021450996399,133.17169189453125,118.7855453491211)" opacity="1"><g opacity="1" transform="matrix(1,0,0,1,13.968999862670898,16.386999130249023)"><path fill="rgb(255,255,255)" fill-opacity="1" d=" M8.305000305175781,-5.570000171661377 C10.748000144958496,-1.9279999732971191 11.949999809265137,1.99399995803833 11.958999633789062,5.359000205993652 C11.968999862670898,8.732999801635742 10.793000221252441,11.423999786376953 8.635000228881836,12.871999740600586 C6.47599983215332,14.319999694824219 3.5399999618530273,14.38599967956543 0.421999990940094,13.097999572753906 C-2.687999963760376,11.812000274658203 -5.861000061035156,9.213000297546387 -8.303999900817871,5.570000171661377 C-10.748000144958496,1.9279999732971191 -11.949000358581543,-1.99399995803833 -11.958999633789062,-5.359000205993652 C-11.968999862670898,-8.732999801635742 -10.793000221252441,-11.423999786376953 -8.635000228881836,-12.871999740600586 C-6.47599983215332,-14.319999694824219 -3.5399999618530273,-14.38700008392334 -0.421999990940094,-13.098999977111816 C2.687999963760376,-11.812999725341797 5.861000061035156,-9.213000297546387 8.305000305175781,-5.570000171661377z"></path><path stroke-linecap="butt" stroke-linejoin="miter" fill-opacity="0" stroke-miterlimit="4" stroke="rgb(0,132,125)" stroke-opacity="1" stroke-width="2" d=" M8.305000305175781,-5.570000171661377 C10.748000144958496,-1.9279999732971191 11.949999809265137,1.99399995803833 11.958999633789062,5.359000205993652 C11.968999862670898,8.732999801635742 10.793000221252441,11.423999786376953 8.635000228881836,12.871999740600586 C6.47599983215332,14.319999694824219 3.5399999618530273,14.38599967956543 0.421999990940094,13.097999572753906 C-2.687999963760376,11.812000274658203 -5.861000061035156,9.213000297546387 -8.303999900817871,5.570000171661377 C-10.748000144958496,1.9279999732971191 -11.949000358581543,-1.99399995803833 -11.958999633789062,-5.359000205993652 C-11.968999862670898,-8.732999801635742 -10.793000221252441,-11.423999786376953 -8.635000228881836,-12.871999740600586 C-6.47599983215332,-14.319999694824219 -3.5399999618530273,-14.38700008392334 -0.421999990940094,-13.098999977111816 C2.687999963760376,-11.812999725341797 5.861000061035156,-9.213000297546387 8.305000305175781,-5.570000171661377z"></path></g><g opacity="1" transform="matrix(1,0,0,1,19.30299949645996,23.31100082397461)"><path fill="rgb(0,132,125)" fill-opacity="1" d=" M-0.35899999737739563,-1.4559999704360962 C0.4449999928474426,-1.6540000438690186 1.2580000162124634,-1.1629999876022339 1.4570000171661377,-0.35899999737739563 C1.6549999713897705,0.44600000977516174 1.1640000343322754,1.2569999694824219 0.35899999737739563,1.4559999704360962 C-0.4449999928474426,1.6540000438690186 -1.2580000162124634,1.1629999876022339 -1.4559999704360962,0.35899999737739563 C-1.6549999713897705,-0.44600000977516174 -1.1629999876022339,-1.2580000162124634 -0.35899999737739563,-1.4559999704360962z"></path></g></g><g style="display: block;" transform="matrix(0.9902246594429016,0.13948173820972443,-0.13948173820972443,0.9902246594429016,44.08113098144531,11.202674865722656)" opacity="1"><g opacity="1" transform="matrix(1,0,0,1,77.44000244140625,42.83100128173828)"><path fill="rgb(0,132,125)" fill-opacity="1" d=" M-41.25,-26.208999633789062 C-41.25,-26.208999633789062 30.799999237060547,-37.94499969482422 30.799999237060547,-37.94499969482422 C48.51599884033203,-40.83100128173828 65.21700286865234,-28.80900001525879 68.10299682617188,-11.093000411987305 C70.98799896240234,6.623000144958496 58.965999603271484,23.323999404907227 41.25,26.208999633789062 C41.25,26.208999633789062 -30.799999237060547,37.94499969482422 -30.799999237060547,37.94499969482422 C-48.51599884033203,40.83100128173828 -65.21700286865234,28.80900001525879 -68.10199737548828,11.093000411987305 C-70.98799896240234,-6.623000144958496 -58.965999603271484,-23.322999954223633 -41.25,-26.208999633789062z"></path><path stroke-linecap="butt" stroke-linejoin="miter" fill-opacity="0" stroke-miterlimit="4" stroke="rgb(0,132,125)" stroke-opacity="1" stroke-width="2" d=" M-41.25,-26.208999633789062 C-41.25,-26.208999633789062 30.799999237060547,-37.94499969482422 30.799999237060547,-37.94499969482422 C48.51599884033203,-40.83100128173828 65.21700286865234,-28.80900001525879 68.10299682617188,-11.093000411987305 C70.98799896240234,6.623000144958496 58.965999603271484,23.323999404907227 41.25,26.208999633789062 C41.25,26.208999633789062 -30.799999237060547,37.94499969482422 -30.799999237060547,37.94499969482422 C-48.51599884033203,40.83100128173828 -65.21700286865234,28.80900001525879 -68.10199737548828,11.093000411987305 C-70.98799896240234,-6.623000144958496 -58.965999603271484,-23.322999954223633 -41.25,-26.208999633789062z"></path></g><g opacity="1" transform="matrix(1,0,0,1,72.98799896240234,46.59600067138672)"><path fill="rgb(255,255,255)" fill-opacity="1" d=" M-41.25,-26.208999633789062 C-41.25,-26.208999633789062 30.799999237060547,-37.94499969482422 30.799999237060547,-37.94499969482422 C48.51599884033203,-40.83100128173828 65.21700286865234,-28.80900001525879 68.10299682617188,-11.093000411987305 C70.98799896240234,6.623000144958496 58.965999603271484,23.323999404907227 41.25,26.208999633789062 C41.25,26.208999633789062 -30.799999237060547,37.94499969482422 -30.799999237060547,37.94499969482422 C-48.51599884033203,40.83100128173828 -65.21700286865234,28.80900001525879 -68.10199737548828,11.093000411987305 C-70.98799896240234,-6.623000144958496 -58.965999603271484,-23.322999954223633 -41.25,-26.208999633789062z"></path><path stroke-linecap="butt" stroke-linejoin="miter" fill-opacity="0" stroke-miterlimit="4" stroke="rgb(0,132,125)" stroke-opacity="1" stroke-width="2" d=" M-41.25,-26.208999633789062 C-41.25,-26.208999633789062 30.799999237060547,-37.94499969482422 30.799999237060547,-37.94499969482422 C48.51599884033203,-40.83100128173828 65.21700286865234,-28.80900001525879 68.10299682617188,-11.093000411987305 C70.98799896240234,6.623000144958496 58.965999603271484,23.323999404907227 41.25,26.208999633789062 C41.25,26.208999633789062 -30.799999237060547,37.94499969482422 -30.799999237060547,37.94499969482422 C-48.51599884033203,40.83100128173828 -65.21700286865234,28.80900001525879 -68.10199737548828,11.093000411987305 C-70.98799896240234,-6.623000144958496 -58.965999603271484,-23.322999954223633 -41.25,-26.208999633789062z"></path></g><g opacity="1" transform="matrix(1,0,0,1,72.98799896240234,46.59600067138672)"><path fill="rgb(255,255,255)" fill-opacity="1" d=" M-39.9640007019043,-18.31399917602539 C-39.9640007019043,-18.31399917602539 32.08599853515625,-30.048999786376953 32.08599853515625,-30.048999786376953 C45.441001892089844,-32.2239990234375 58.03099822998047,-23.163000106811523 60.207000732421875,-9.807999610900879 C62.38199996948242,3.546999931335449 53.319000244140625,16.13800048828125 39.9640007019043,18.31399917602539 C39.9640007019043,18.31399917602539 -32.08599853515625,30.049999237060547 -32.08599853515625,30.049999237060547 C-45.441001892089844,32.224998474121094 -58.03099822998047,23.16200065612793 -60.20600128173828,9.807000160217285 C-62.38199996948242,-3.5480000972747803 -53.319000244140625,-16.138999938964844 -39.9640007019043,-18.31399917602539z"></path><path stroke-linecap="butt" stroke-linejoin="miter" fill-opacity="0" stroke-miterlimit="4" stroke="rgb(0,132,125)" stroke-opacity="1" stroke-width="2" d=" M-39.9640007019043,-18.31399917602539 C-39.9640007019043,-18.31399917602539 32.08599853515625,-30.048999786376953 32.08599853515625,-30.048999786376953 C45.441001892089844,-32.2239990234375 58.03099822998047,-23.163000106811523 60.207000732421875,-9.807999610900879 C62.38199996948242,3.546999931335449 53.319000244140625,16.13800048828125 39.9640007019043,18.31399917602539 C39.9640007019043,18.31399917602539 -32.08599853515625,30.049999237060547 -32.08599853515625,30.049999237060547 C-45.441001892089844,32.224998474121094 -58.03099822998047,23.16200065612793 -60.20600128173828,9.807000160217285 C-62.38199996948242,-3.5480000972747803 -53.319000244140625,-16.138999938964844 -39.9640007019043,-18.31399917602539z"></path></g></g><g style="display: block;" transform="matrix(0.995008647441864,-0.09978936612606049,0.09978936612606049,0.995008647441864,124.2413558959961,53.56011199951172)" opacity="1"><g opacity="1" transform="matrix(1,0,0,1,11.008000373840332,11.008000373840332)"><path fill="rgb(0,132,125)" fill-opacity="1" d=" M-1.6080000400543213,-9.869999885559082 C3.8429999351501465,-10.758000373840332 8.982000350952148,-7.059000015258789 9.869999885559082,-1.6080000400543213 C10.756999969482422,3.8429999351501465 7.058000087738037,8.982000350952148 1.6069999933242798,9.869999885559082 C-3.8440001010894775,10.758000373840332 -8.982000350952148,7.059000015258789 -9.869999885559082,1.6080000400543213 C-10.758000373840332,-3.8429999351501465 -7.059000015258789,-8.982000350952148 -1.6080000400543213,-9.869999885559082z"></path></g><g opacity="1" transform="matrix(1,0,0,1,14.609999656677246,11.177000045776367)"><path fill="rgb(255,255,255)" fill-opacity="1" d=" M-0.7229999899864197,-4.440999984741211 C1.7300000190734863,-4.841000080108643 4.041999816894531,-3.1760001182556152 4.441999912261963,-0.7229999899864197 C4.841000080108643,1.7300000190734863 3.177000045776367,4.041999816894531 0.7239999771118164,4.441999912261963 C-1.7289999723434448,4.841000080108643 -4.040999889373779,3.177000045776367 -4.440999984741211,0.7239999771118164 C-4.841000080108643,-1.7289999723434448 -3.1760001182556152,-4.040999889373779 -0.7229999899864197,-4.440999984741211z"></path></g></g><g style="display: block;" transform="matrix(0.9989123344421387,-0.04662908613681793,0.04662908613681793,0.9989123344421387,72.79521179199219,54.0515251159668)" opacity="1"><g opacity="1" transform="matrix(1,0,0,1,11.006999969482422,11.008000373840332)"><path fill="rgb(0,132,125)" fill-opacity="1" d=" M-1.6069999933242798,-9.869999885559082 C3.8440001010894775,-10.758000373840332 8.982000350952148,-7.059000015258789 9.869999885559082,-1.6080000400543213 C10.756999969482422,3.8429999351501465 7.058000087738037,8.982000350952148 1.6069999933242798,9.869999885559082 C-3.8440001010894775,10.758000373840332 -8.982000350952148,7.059000015258789 -9.869999885559082,1.6080000400543213 C-10.758000373840332,-3.8429999351501465 -7.058000087738037,-8.982000350952148 -1.6069999933242798,-9.869999885559082z"></path></g><g opacity="1" transform="matrix(1,0,0,1,14.9350004196167,10.817999839782715)"><path fill="rgb(255,255,255)" fill-opacity="1" d=" M-0.7229999899864197,-4.440999984741211 C1.7300000190734863,-4.841000080108643 4.041999816894531,-3.1760001182556152 4.441999912261963,-0.7229999899864197 C4.841000080108643,1.7300000190734863 3.177000045776367,4.041999816894531 0.7239999771118164,4.441999912261963 C-1.7289999723434448,4.841000080108643 -4.040999889373779,3.177000045776367 -4.440999984741211,0.7239999771118164 C-4.841000080108643,-1.7289999723434448 -3.1760001182556152,-4.040999889373779 -0.7229999899864197,-4.440999984741211z"></path></g></g></g></g></svg>